<svg xmlns="http://www.w3.org/2000/svg" viewBox="0 0 800 450" width="800" height="450">
  <defs>
    <linearGradient id="bg" x1="0%" y1="0%" x2="100%" y2="100%">
      <stop offset="0%" stop-color="#0f1f33"/>
      <stop offset="100%" stop-color="#1a2d45"/>
    </linearGradient>
  </defs>
  <rect width="800" height="450" fill="url(#bg)"/>
  <line x1="80" y1="120" x2="180" y2="120" stroke="#2d8a80" stroke-width="1" opacity="0.08"/>
  <line x1="620" y1="330" x2="720" y2="330" stroke="#2d8a80" stroke-width="1" opacity="0.08"/>
  <line x1="700" y1="90" x2="700" y2="200" stroke="#2d8a80" stroke-width="1" opacity="0.06"/>
  <g transform="translate(400, 225)" opacity="0.15">
    <rect x="-110" y="-80" width="220" height="160" rx="8" fill="none" stroke="#2d8a80" stroke-width="4"/>
    <rect x="-85" y="20" width="28" height="50" rx="3" fill="#2d8a80"/>
    <rect x="-45" y="-10" width="28" height="80" rx="3" fill="#2d8a80"/>
    <rect x="-5" y="-40" width="28" height="110" rx="3" fill="#2d8a80"/>
    <rect x="35" y="-20" width="28" height="90" rx="3" fill="#2d8a80"/>
    <rect x="75" y="-55" width="28" height="125" rx="3" fill="#2d8a80"/>
    <polyline points="-70,-10 -30,-30 10,-50 50,-35 90,-65" fill="none" stroke="#2d8a80" stroke-width="3" stroke-linecap="round" stroke-linejoin="round"/>
    <circle cx="-70" cy="-10" r="4" fill="#2d8a80"/>
    <circle cx="-30" cy="-30" r="4" fill="#2d8a80"/>
    <circle cx="10" cy="-50" r="4" fill="#2d8a80"/>
    <circle cx="50" cy="-35" r="4" fill="#2d8a80"/>
    <circle cx="90" cy="-65" r="4" fill="#2d8a80"/>
    <line x1="-95" y1="72" x2="105" y2="72" stroke="#2d8a80" stroke-width="2"/>
  </g>
  <circle cx="60" cy="60" r="3" fill="#2d8a80" opacity="0.1"/>
  <circle cx="740" cy="60" r="3" fill="#2d8a80" opacity="0.1"/>
  <circle cx="60" cy="390" r="3" fill="#2d8a80" opacity="0.1"/>
  <circle cx="740" cy="390" r="3" fill="#2d8a80" opacity="0.1"/>
</svg>
