<svg xmlns="http://www.w3.org/2000/svg" viewBox="0 0 800 450" width="800" height="450">
  <defs>
    <linearGradient id="bg" x1="0%" y1="0%" x2="100%" y2="100%">
      <stop offset="0%" stop-color="#0f1f33"/>
      <stop offset="100%" stop-color="#1a2d45"/>
    </linearGradient>
  </defs>
  <rect width="800" height="450" fill="url(#bg)"/>
  <line x1="80" y1="100" x2="200" y2="100" stroke="#2d8a80" stroke-width="1" opacity="0.08"/>
  <line x1="600" y1="350" x2="720" y2="350" stroke="#2d8a80" stroke-width="1" opacity="0.08"/>
  <line x1="130" y1="300" x2="130" y2="400" stroke="#2d8a80" stroke-width="1" opacity="0.06"/>
  <line x1="670" y1="50" x2="670" y2="150" stroke="#2d8a80" stroke-width="1" opacity="0.06"/>
  <g transform="translate(400, 225)" opacity="0.15">
    <g transform="translate(-20, -10)">
      <circle cx="0" cy="0" r="45" fill="none" stroke="#2d8a80" stroke-width="5"/>
      <rect x="-8" y="-62" width="16" height="18" rx="3" fill="#2d8a80" transform="rotate(0, 0, 0)"/>
      <rect x="-8" y="-62" width="16" height="18" rx="3" fill="#2d8a80" transform="rotate(45, 0, 0)"/>
      <rect x="-8" y="-62" width="16" height="18" rx="3" fill="#2d8a80" transform="rotate(90, 0, 0)"/>
      <rect x="-8" y="-62" width="16" height="18" rx="3" fill="#2d8a80" transform="rotate(135, 0, 0)"/>
      <rect x="-8" y="-62" width="16" height="18" rx="3" fill="#2d8a80" transform="rotate(180, 0, 0)"/>
      <rect x="-8" y="-62" width="16" height="18" rx="3" fill="#2d8a80" transform="rotate(225, 0, 0)"/>
      <rect x="-8" y="-62" width="16" height="18" rx="3" fill="#2d8a80" transform="rotate(270, 0, 0)"/>
      <rect x="-8" y="-62" width="16" height="18" rx="3" fill="#2d8a80" transform="rotate(315, 0, 0)"/>
      <circle cx="0" cy="0" r="16" fill="none" stroke="#2d8a80" stroke-width="4"/>
    </g>
    <g transform="translate(55, 45)">
      <circle cx="0" cy="0" r="28" fill="none" stroke="#2d8a80" stroke-width="4"/>
      <rect x="-6" y="-40" width="12" height="14" rx="2" fill="#2d8a80" transform="rotate(0, 0, 0)"/>
      <rect x="-6" y="-40" width="12" height="14" rx="2" fill="#2d8a80" transform="rotate(60, 0, 0)"/>
      <rect x="-6" y="-40" width="12" height="14" rx="2" fill="#2d8a80" transform="rotate(120, 0, 0)"/>
      <rect x="-6" y="-40" width="12" height="14" rx="2" fill="#2d8a80" transform="rotate(180, 0, 0)"/>
      <rect x="-6" y="-40" width="12" height="14" rx="2" fill="#2d8a80" transform="rotate(240, 0, 0)"/>
      <rect x="-6" y="-40" width="12" height="14" rx="2" fill="#2d8a80" transform="rotate(300, 0, 0)"/>
      <circle cx="0" cy="0" r="10" fill="none" stroke="#2d8a80" stroke-width="3"/>
    </g>
    <circle cx="-80" cy="-60" r="5" fill="#2d8a80"/>
    <line x1="-80" y1="-60" x2="-50" y2="-40" stroke="#2d8a80" stroke-width="2" stroke-dasharray="4,4"/>
    <circle cx="90" cy="-40" r="5" fill="#2d8a80"/>
    <line x1="90" y1="-40" x2="50" y2="-30" stroke="#2d8a80" stroke-width="2" stroke-dasharray="4,4"/>
    <circle cx="80" cy="85" r="5" fill="#2d8a80"/>
    <line x1="80" y1="85" x2="65" y2="70" stroke="#2d8a80" stroke-width="2" stroke-dasharray="4,4"/>
  </g>
  <circle cx="60" cy="60" r="3" fill="#2d8a80" opacity="0.1"/>
  <circle cx="740" cy="60" r="3" fill="#2d8a80" opacity="0.1"/>
  <circle cx="60" cy="390" r="3" fill="#2d8a80" opacity="0.1"/>
  <circle cx="740" cy="390" r="3" fill="#2d8a80" opacity="0.1"/>
</svg>
