<svg xmlns="http://www.w3.org/2000/svg" viewBox="0 0 800 450" width="800" height="450">
  <defs>
    <linearGradient id="bg" x1="0%" y1="0%" x2="100%" y2="100%">
      <stop offset="0%" stop-color="#0f1f33"/>
      <stop offset="100%" stop-color="#1a2d45"/>
    </linearGradient>
  </defs>
  <rect width="800" height="450" fill="url(#bg)"/>
  <line x1="90" y1="370" x2="210" y2="370" stroke="#2d8a80" stroke-width="1" opacity="0.08"/>
  <line x1="590" y1="80" x2="710" y2="80" stroke="#2d8a80" stroke-width="1" opacity="0.08"/>
  <line x1="160" y1="80" x2="160" y2="180" stroke="#2d8a80" stroke-width="1" opacity="0.06"/>
  <line x1="640" y1="270" x2="640" y2="370" stroke="#2d8a80" stroke-width="1" opacity="0.06"/>
  <g transform="translate(400, 225)" opacity="0.15">
    <circle cx="0" cy="-50" r="22" fill="none" stroke="#2d8a80" stroke-width="4"/>
    <path d="M-35,-15 C-35,-15 -30,15 0,15 C30,15 35,-15 35,-15" fill="none" stroke="#2d8a80" stroke-width="4"/>
    <circle cx="-75" cy="-35" r="18" fill="none" stroke="#2d8a80" stroke-width="3.5"/>
    <path d="M-105,-5 C-105,-5 -100,20 -75,20 C-50,20 -45,-5 -45,-5" fill="none" stroke="#2d8a80" stroke-width="3.5"/>
    <circle cx="75" cy="-35" r="18" fill="none" stroke="#2d8a80" stroke-width="3.5"/>
    <path d="M45,-5 C45,-5 50,20 75,20 C100,20 105,-5 105,-5" fill="none" stroke="#2d8a80" stroke-width="3.5"/>
    <line x1="-50" y1="-25" x2="-20" y2="-35" stroke="#2d8a80" stroke-width="2" stroke-dasharray="4,4"/>
    <line x1="20" y1="-35" x2="50" y2="-25" stroke="#2d8a80" stroke-width="2" stroke-dasharray="4,4"/>
    <line x1="-55" y1="10" x2="55" y2="10" stroke="#2d8a80" stroke-width="2" stroke-dasharray="4,4"/>
    <circle cx="0" cy="0" r="85" fill="none" stroke="#2d8a80" stroke-width="2" stroke-dasharray="6,8"/>
    <circle cx="0" cy="-90" r="5" fill="#2d8a80"/>
    <line x1="0" y1="-98" x2="0" y2="-105" stroke="#2d8a80" stroke-width="2"/>
    <line x1="-6" y1="-96" x2="-10" y2="-102" stroke="#2d8a80" stroke-width="2"/>
    <line x1="6" y1="-96" x2="10" y2="-102" stroke="#2d8a80" stroke-width="2"/>
  </g>
  <circle cx="60" cy="60" r="3" fill="#2d8a80" opacity="0.1"/>
  <circle cx="740" cy="60" r="3" fill="#2d8a80" opacity="0.1"/>
  <circle cx="60" cy="390" r="3" fill="#2d8a80" opacity="0.1"/>
  <circle cx="740" cy="390" r="3" fill="#2d8a80" opacity="0.1"/>
</svg>
